<?xml version="1.0" encoding="UTF-8"?>
<svg width="300" height="300" viewBox="0 0 300 300" fill="none" xmlns="http://www.w3.org/2000/svg">
  <defs>
    <filter id="glow" x="-50%" y="-50%" width="200%" height="200%">
      <feGaussianBlur stdDeviation="5" result="blur" />
      <feComposite in="SourceGraphic" in2="blur" operator="over" />
    </filter>
    <linearGradient id="bodyGradient" x1="0%" y1="0%" x2="100%" y2="100%">
      <stop offset="0%" stop-color="#666666" />
      <stop offset="50%" stop-color="#999999" />
      <stop offset="100%" stop-color="#555555" />
    </linearGradient>
    <linearGradient id="faceGradient" x1="0%" y1="0%" x2="100%" y2="100%">
      <stop offset="0%" stop-color="#371B58" />
      <stop offset="100%" stop-color="#4B0082" />
    </linearGradient>
    <radialGradient id="eyeGlow" cx="50%" cy="50%" r="50%" fx="50%" fy="50%">
      <stop offset="0%" stop-color="#FFFFFF" stop-opacity="1" />
      <stop offset="70%" stop-color="#F0F0FF" stop-opacity="0.8" />
      <stop offset="100%" stop-color="#DDDDFF" stop-opacity="0.5" />
    </radialGradient>
    <radialGradient id="platformGlow" cx="50%" cy="50%" r="50%" fx="50%" fy="50%">
      <stop offset="0%" stop-color="#AA55FF" stop-opacity="0.8" />
      <stop offset="100%" stop-color="#AA55FF" stop-opacity="0" />
    </radialGradient>
  </defs>
  
  <!-- Platform with glow -->
  <rect x="100" y="220" width="100" height="30" fill="#FFFFFF" rx="2" />
  <ellipse cx="150" cy="250" rx="70" ry="10" fill="url(#platformGlow)" filter="url(#glow)" opacity="0.7" />
  
  <!-- Robot body -->
  <g>
    <!-- Legs -->
    <path d="M135,220 L130,200 L140,200 L135,220" fill="url(#bodyGradient)" />
    <path d="M165,220 L160,200 L170,200 L165,220" fill="url(#bodyGradient)" />
    
    <!-- Feet -->
    <ellipse cx="135" cy="220" rx="10" ry="5" fill="url(#bodyGradient)" />
    <ellipse cx="165" cy="220" rx="10" ry="5" fill="url(#bodyGradient)" />
    
    <!-- Main Body/Torso -->
    <ellipse cx="150" cy="180" rx="25" ry="20" fill="url(#bodyGradient)" />
    
    <!-- Arms -->
    <path d="M125,180 L115,175 L120,185 L125,180" fill="url(#bodyGradient)" />
    <path d="M175,180 L185,175 L180,185 L175,180" fill="url(#bodyGradient)" />
    
    <!-- Head -->
    <rect x="125" y="130" width="50" height="50" rx="5" fill="url(#bodyGradient)" />
    
    <!-- Face plate - purple -->
    <rect x="130" y="135" width="40" height="40" rx="3" fill="url(#faceGradient)" filter="url(#glow)" />
    
    <!-- Eyes -->
    <circle cx="140" cy="155" r="10" fill="url(#eyeGlow)" filter="url(#glow)" />
    <circle cx="160" cy="155" r="10" fill="url(#eyeGlow)" filter="url(#glow)" />
    
    <!-- Antenna/ears -->
    <rect x="120" y="145" width="5" height="20" rx="2" fill="url(#bodyGradient)" />
    <rect x="175" y="145" width="5" height="20" rx="2" fill="url(#bodyGradient)" />
    <circle cx="122.5" cy="145" r="3" fill="#9370DB" filter="url(#glow)" />
    <circle cx="177.5" cy="145" r="3" fill="#9370DB" filter="url(#glow)" />
  </g>
  
  <!-- Purple glow on platform -->
  <ellipse cx="150" cy="235" rx="30" ry="5" fill="#9370DB" opacity="0.4" filter="url(#glow)" />
</svg>