<?xml version="1.0" encoding="UTF-8"?>
<svg width="400" height="400" viewBox="0 0 400 400" fill="none" xmlns="http://www.w3.org/2000/svg">
  <defs>
    <filter id="glow" x="-50%" y="-50%" width="200%" height="200%">
      <feGaussianBlur stdDeviation="8" result="blur" />
      <feComposite in="SourceGraphic" in2="blur" operator="over" />
    </filter>
    <filter id="eyeGlow" x="-50%" y="-50%" width="200%" height="200%">
      <feGaussianBlur stdDeviation="4" result="blur" />
      <feComposite in="SourceGraphic" in2="blur" operator="over" />
    </filter>
    <linearGradient id="metalBody" x1="0%" y1="0%" x2="100%" y2="100%">
      <stop offset="0%" stop-color="#888888" />
      <stop offset="20%" stop-color="#DDDDDD" />
      <stop offset="40%" stop-color="#666666" />
      <stop offset="60%" stop-color="#AAAAAA" />
      <stop offset="80%" stop-color="#555555" />
      <stop offset="100%" stop-color="#999999" />
    </linearGradient>
    <linearGradient id="facePlate" x1="0%" y1="0%" x2="100%" y2="100%">
      <stop offset="0%" stop-color="#4B0082" />
      <stop offset="40%" stop-color="#5D3FD3" />
      <stop offset="60%" stop-color="#3D0066" />
      <stop offset="100%" stop-color="#6A0DAD" />
    </linearGradient>
    <radialGradient id="eyeLight" cx="50%" cy="50%" r="50%" fx="50%" fy="50%">
      <stop offset="0%" stop-color="#FFFFFF" stop-opacity="1" />
      <stop offset="80%" stop-color="#F0F0FF" stop-opacity="0.9" />
      <stop offset="100%" stop-color="#DDDDFF" stop-opacity="0.8" />
    </radialGradient>
    <radialGradient id="purpleGlow" cx="50%" cy="50%" r="50%" fx="50%" fy="50%">
      <stop offset="0%" stop-color="#AA55FF" stop-opacity="0.8" />
      <stop offset="100%" stop-color="#AA55FF" stop-opacity="0" />
    </radialGradient>
    <radialGradient id="platformShine" cx="30%" cy="30%" r="80%" fx="30%" fy="30%">
      <stop offset="0%" stop-color="#FFFFFF" stop-opacity="0.9" />
      <stop offset="100%" stop-color="#F5F5F5" stop-opacity="0.5" />
    </radialGradient>
    <linearGradient id="purpleHighlight" x1="0%" y1="0%" x2="100%" y2="100%">
      <stop offset="0%" stop-color="#AA55FF" stop-opacity="0.8" />
      <stop offset="100%" stop-color="#AA55FF" stop-opacity="0" />
    </linearGradient>
  </defs>

  <!-- Platform and shadows -->
  <rect x="130" y="280" width="140" height="60" rx="3" fill="#151515" />
  <rect x="125" y="275" width="150" height="10" rx="2" fill="#FFFFFF" />
  <rect x="130" y="275" width="140" height="5" fill="url(#platformShine)" />
  
  <!-- Purple glow under platform -->
  <ellipse cx="200" cy="340" rx="90" ry="15" fill="url(#purpleGlow)" filter="url(#glow)" opacity="0.7" />
  <ellipse cx="160" cy="330" rx="40" ry="10" fill="#AA55FF" opacity="0.3" filter="url(#glow)" />
  
  <!-- Purple glow on platform -->
  <ellipse cx="180" cy="280" rx="40" ry="5" fill="#AA55FF" opacity="0.5" filter="url(#glow)" />
  
  <!-- Robot body parts -->
  <g>
    <!-- Legs and feet -->
    <rect x="165" y="245" width="16" height="35" rx="5" fill="url(#metalBody)" />
    <rect x="220" y="245" width="16" height="35" rx="5" fill="url(#metalBody)" />
    <ellipse cx="173" cy="280" rx="15" ry="7" fill="url(#metalBody)" />
    <ellipse cx="228" cy="280" rx="15" ry="7" fill="url(#metalBody)" />
    
    <!-- Shadows on legs -->
    <rect x="165" y="245" width="4" height="35" fill="#333333" opacity="0.3" />
    <rect x="220" y="245" width="4" height="35" fill="#333333" opacity="0.3" />
    
    <!-- Body -->
    <ellipse cx="200" cy="220" rx="40" ry="30" fill="url(#metalBody)" />
    
    <!-- Highlights on body -->
    <ellipse cx="180" cy="210" rx="30" ry="20" fill="#FFFFFF" opacity="0.2" />
    <ellipse cx="210" cy="230" rx="25" ry="15" fill="#333333" opacity="0.2" />
    
    <!-- Arms -->
    <path d="M160,220 C155,218 150,215 145,217 C140,219 138,223 140,230" stroke="url(#metalBody)" stroke-width="10" fill="none" stroke-linecap="round" />
    <path d="M240,220 C245,218 250,215 255,217 C260,219 262,223 260,230" stroke="url(#metalBody)" stroke-width="10" fill="none" stroke-linecap="round" />
    
    <!-- Hands -->
    <circle cx="140" cy="230" r="8" fill="url(#metalBody)" />
    <circle cx="260" cy="230" r="8" fill="url(#metalBody)" />
    
    <!-- Highlights on arms -->
    <circle cx="140" cy="230" r="3" fill="#FFFFFF" opacity="0.3" />
    <circle cx="260" cy="230" r="3" fill="#FFFFFF" opacity="0.3" />
    
    <!-- Head -->
    <rect x="160" y="140" width="80" height="80" rx="8" fill="url(#metalBody)" />
    
    <!-- Face plate (purple) -->
    <rect x="170" y="150" width="60" height="60" rx="5" fill="url(#facePlate)" filter="url(#glow)" />
    
    <!-- Purple highlight on top corner of face -->
    <rect x="170" y="150" width="20" height="10" fill="url(#purpleHighlight)" opacity="0.5" />
    
    <!-- Eyes -->
    <circle cx="185" cy="180" r="14" fill="url(#eyeLight)" filter="url(#eyeGlow)" />
    <circle cx="215" cy="180" r="14" fill="url(#eyeLight)" filter="url(#eyeGlow)" />
    
    <!-- Head details - ear modules -->
    <rect x="150" y="170" width="10" height="25" rx="3" fill="url(#metalBody)" />
    <rect x="240" y="170" width="10" height="25" rx="3" fill="url(#metalBody)" />
    <circle cx="155" cy="170" r="5" fill="#9370DB" filter="url(#glow)" opacity="0.8" />
    <circle cx="245" cy="170" r="5" fill="#9370DB" filter="url(#glow)" opacity="0.8" />
    
    <!-- Head top highlight -->
    <rect x="170" y="140" width="60" height="10" fill="#FFFFFF" opacity="0.3" rx="5" />
  </g>
  
  <!-- Additional shine effects -->
  <circle cx="160" cy="150" r="3" fill="#FFFFFF" opacity="0.5" />
  <circle cx="240" cy="150" r="3" fill="#FFFFFF" opacity="0.5" />
  <ellipse cx="173" cy="280" rx="5" ry="3" fill="#FFFFFF" opacity="0.3" />
  <ellipse cx="228" cy="280" rx="5" ry="3" fill="#FFFFFF" opacity="0.3" />
</svg>